<?xml version="1.0" encoding="UTF-8"?>
<svg width="80px" height="24px" viewBox="0 0 80 24" version="1.1" xmlns="http://www.w3.org/2000/svg" xmlns:xlink="http://www.w3.org/1999/xlink">
    <title>VACA</title>
    <g id="Page-1" stroke="none" stroke-width="1" fill="none" fill-rule="evenodd">
        <g id="Desktop" transform="translate(-472.000000, -19.000000)" fill="#000000" fill-rule="nonzero">
            <g id="Header">
                <path d="M478.8875,43 C481.3875,43 483.53125,42.1020833 485.31875,40.30625 C487.10625,38.5104167 488,36.3708333 488,33.8875 L488,33.8875 L488,19 L482.675,19 L482.675,37.675 C482.675,38.3916667 482.414583,39.0125 481.89375,39.5375 C481.372917,40.0625 480.741667,40.325 480,40.325 L480,40.325 L477.325,40.325 L477.325,19 L472,19 L472,43 L478.8875,43 Z M498.65,43 L498.65,32.325 L504,32.325 L504,43 L509.325,43 L509.325,24.325 C509.325,22.875 508.802083,21.625 507.75625,20.575 C506.710417,19.525 505.458333,19 504,19 L504,19 L498.65,19 C497.191667,19 495.939583,19.5229167 494.89375,20.56875 C493.847917,21.6145833 493.325,22.8666667 493.325,24.325 L493.325,24.325 L493.325,43 L498.65,43 Z M504,29.675 L498.65,29.675 L498.65,24.325 C498.65,23.6 498.9125,22.9770833 499.4375,22.45625 C499.9625,21.9354167 500.591667,21.675 501.325,21.675 C502.05,21.675 502.677083,21.9354167 503.20625,22.45625 C503.735417,22.9770833 504,23.6 504,24.325 L504,24.325 L504,29.675 Z M525.325,43 C528.641667,43 530.416667,41.225 530.65,37.675 L530.65,37.675 L527.975,37.675 C527.775,39.4416667 526.891667,40.325 525.325,40.325 L525.325,40.325 L522.65,40.325 C521.908333,40.325 521.277083,40.0625 520.75625,39.5375 C520.235417,39.0125 519.975,38.3916667 519.975,37.675 L519.975,37.675 L519.975,24.325 C519.975,23.6 520.2375,22.9770833 520.7625,22.45625 C521.2875,21.9354167 521.916667,21.675 522.65,21.675 L522.65,21.675 L525.325,21.675 C526.883333,21.675 527.766667,22.5583333 527.975,24.325 L527.975,24.325 L530.65,24.325 C530.45,20.775 528.675,19 525.325,19 L525.325,19 L519.975,19 C518.483333,19 517.222917,19.5291667 516.19375,20.5875 C515.164583,21.6458333 514.65,22.8916667 514.65,24.325 L514.65,24.325 L514.65,37.675 C514.65,39.1333333 515.172917,40.3854167 516.21875,41.43125 C517.264583,42.4770833 518.516667,43 519.975,43 L519.975,43 L525.325,43 Z M541.3,43 L541.3,32.325 L546.65,32.325 L546.65,43 L551.975,43 L551.975,24.325 C551.975,22.875 551.452083,21.625 550.40625,20.575 C549.360417,19.525 548.108333,19 546.65,19 L546.65,19 L541.3,19 C539.841667,19 538.589583,19.5229167 537.54375,20.56875 C536.497917,21.6145833 535.975,22.8666667 535.975,24.325 L535.975,24.325 L535.975,43 L541.3,43 Z M546.65,29.675 L541.3,29.675 L541.3,24.325 C541.3,23.6 541.5625,22.9770833 542.0875,22.45625 C542.6125,21.9354167 543.241667,21.675 543.975,21.675 C544.7,21.675 545.327083,21.9354167 545.85625,22.45625 C546.385417,22.9770833 546.65,23.6 546.65,24.325 L546.65,24.325 L546.65,29.675 Z" id="VACA"></path>
            </g>
        </g>
    </g>
</svg>